<svg xmlns="http://www.w3.org/2000/svg" xmlns:xlink="http://www.w3.org/1999/xlink" version="1.1" width="256" height="256" viewBox="0 0 256 256" xml:space="preserve">
<g style="stroke: none; stroke-width: 0; stroke-dasharray: none; stroke-linecap: butt; stroke-linejoin: miter; stroke-miterlimit: 10; fill: none; fill-rule: nonzero; opacity: 1;" transform="translate(1.4065934065934016 1.4065934065934016) scale(2.81 2.81)">
	<path d="M 29.156 44.825 c -4.357 0 -7.902 -3.545 -7.902 -7.902 s 3.545 -7.902 7.902 -7.902 s 7.902 3.545 7.902 7.902 S 33.514 44.825 29.156 44.825 z" style="stroke: none; stroke-width: 1; stroke-dasharray: none; stroke-linecap: butt; stroke-linejoin: miter; stroke-miterlimit: 10; fill: rgb(0,0,0); fill-rule: nonzero; opacity: 1;" transform=" matrix(1 0 0 1 0 0) " stroke-linecap="round"/>
	<path d="M 80.813 44.567 c -1.105 0 -2 0.896 -2 2 v 18.657 L 55.611 48.131 c -2.885 -2.125 -6.815 -2.197 -9.774 -0.179 l -13.979 9.525 c -1.655 1.126 -3.872 1.007 -5.396 -0.291 L 4 38.041 V 25.056 c 0 -2.144 1.744 -3.888 3.888 -3.888 h 48.139 c 1.105 0 2 -0.896 2 -2 s -0.896 -2 -2 -2 H 7.888 C 3.539 17.168 0 20.706 0 25.056 v 45.423 c 0 4.349 3.539 7.887 7.888 7.887 h 67.036 c 4.35 0 7.888 -3.538 7.888 -7.887 V 46.567 C 82.813 45.462 81.917 44.567 80.813 44.567 z" style="stroke: none; stroke-width: 1; stroke-dasharray: none; stroke-linecap: butt; stroke-linejoin: miter; stroke-miterlimit: 10; fill: rgb(0,0,0); fill-rule: nonzero; opacity: 1;" transform=" matrix(1 0 0 1 0 0) " stroke-linecap="round"/>
	<path d="M 85.711 15.93 c -2.77 -2.77 -6.453 -4.296 -10.37 -4.296 c -3.917 0 -7.6 1.526 -10.37 4.296 c -5.718 5.718 -5.718 15.021 0 20.739 c 2.859 2.859 6.614 4.288 10.37 4.288 c 3.755 0 7.51 -1.429 10.37 -4.288 C 91.43 30.951 91.43 21.647 85.711 15.93 z M 82.883 18.758 c 3.674 3.674 4.095 9.382 1.276 13.531 l -14.81 -14.81 c 1.754 -1.197 3.823 -1.844 5.993 -1.844 C 78.19 15.634 80.868 16.744 82.883 18.758 z M 67.8 33.841 c -3.674 -3.675 -4.096 -9.383 -1.276 -13.531 l 14.807 14.807 C 77.182 37.937 71.474 37.514 67.8 33.841 z" style="stroke: none; stroke-width: 1; stroke-dasharray: none; stroke-linecap: butt; stroke-linejoin: miter; stroke-miterlimit: 10; fill: rgb(0,0,0); fill-rule: nonzero; opacity: 1;" transform=" matrix(1 0 0 1 0 0) " stroke-linecap="round"/>
</g>
</svg>